<?xml version="1.0" encoding="UTF-8" standalone="no"?>
<svg
   xmlns:dc="http://purl.org/dc/elements/1.1/"
   xmlns:cc="http://creativecommons.org/ns#"
   xmlns:rdf="http://www.w3.org/1999/02/22-rdf-syntax-ns#"
   xmlns:svg="http://www.w3.org/2000/svg"
   xmlns="http://www.w3.org/2000/svg"
   xmlns:sodipodi="http://sodipodi.sourceforge.net/DTD/sodipodi-0.dtd"
   xmlns:inkscape="http://www.inkscape.org/namespaces/inkscape"
   inkscape:export-ydpi="96"
   inkscape:export-xdpi="96"
   inkscape:export-filename="/home/moro/Project Shadow/sprite/bg/ship.png"
   sodipodi:docname="ship.svg"
   inkscape:version="1.0 (4035a4fb49, 2020-05-01)"
   id="svg879"
   version="1.1"
   viewBox="0 0 354.31589 280.61995"
   height="1060.6108"
   width="1339.1467">
  <defs
     id="defs873">
    <inkscape:path-effect
       hide_knot="false"
       lpeversion="0"
       fuse_tolerance="0"
       vertical_pattern="false"
       prop_units="false"
       tang_offset="0"
       normal_offset="0"
       spacing="0"
       scale_y_rel="false"
       prop_scale="0.26458333"
       copytype="single_stretched"
       pattern="M 0,5 C 0,2.24 2.24,0 5,0 7.76,0 10,2.24 10,5 10,7.76 7.76,10 5,10 2.24,10 0,7.76 0,5 Z"
       is_visible="true"
       id="path-effect1426"
       effect="skeletal" />
  </defs>
  <sodipodi:namedview
     fit-margin-bottom="0"
     fit-margin-right="0"
     fit-margin-left="0"
     fit-margin-top="0"
     inkscape:document-rotation="0"
     inkscape:window-maximized="1"
     inkscape:window-y="0"
     inkscape:window-x="0"
     inkscape:window-height="999"
     inkscape:window-width="1920"
     units="px"
     showgrid="false"
     inkscape:current-layer="layer1"
     inkscape:document-units="px"
     inkscape:cy="930.83674"
     inkscape:cx="162.05407"
     inkscape:zoom="0.35355339"
     inkscape:pageshadow="2"
     inkscape:pageopacity="0.0"
     borderopacity="1.0"
     bordercolor="#666666"
     pagecolor="#ffffff"
     id="base" />
  <metadata
     id="metadata876">
    <rdf:RDF>
      <cc:Work
         rdf:about="">
        <dc:format>image/svg+xml</dc:format>
        <dc:type
           rdf:resource="http://purl.org/dc/dcmitype/StillImage" />
        <dc:title></dc:title>
      </cc:Work>
    </rdf:RDF>
  </metadata>
  <g
     transform="translate(235.77742,111.5938)"
     id="layer1"
     inkscape:groupmode="layer"
     inkscape:label="Layer 1">
    <path
       id="path845"
       d="m -424.9289,233.20908 c -15.05826,-19.7131 -19.65019,-22.99272 -29.75583,-21.25183 -7.42283,1.27882 -8.61643,0.25624 -20.83002,-17.84489 -13.59783,-20.15251 -17.03407,-27.7495 -13.05035,-28.85236 1.31671,-0.36459 20.62397,-2.67771 42.90505,-5.14021 22.28103,-2.46261 41.13456,-4.65017 41.89675,-4.86118 0.76212,-0.21107 0.76195,-2.6367 -3.8e-4,-5.39043 -0.85768,-3.09796 -3.05688,-4.54598 -5.76829,-3.79795 -2.4101,0.66492 -24.15145,4.27795 -48.31401,8.029 -24.16261,3.75096 -49.01126,8.188 -55.21922,9.86006 -11.76544,3.16561 -22.73856,1.70798 -17.49017,-2.32804 1.52779,-1.17481 2.15611,-4.38142 1.39638,-7.12561 -0.75974,-2.74419 1.3059,-17.18674 4.59031,-32.0947 5.09052,-23.105837 6.92261,-44.750037 6.11011,-72.184924 -0.0977,-3.308301 0.58253,-6.225732 1.51222,-6.48309 0.92971,-0.257424 8.0691,3.223997 15.86538,7.736416 7.79624,4.512494 14.95058,7.989761 15.89847,7.727347 0.9479,-0.262458 12.29308,5.72593 25.21148,13.307494 18.70873,10.97982 23.70798,12.88632 24.56896,9.36979 0.59452,-2.42826 4.4046,-5.33509 8.46684,-6.45974 6.53757,-1.80995 7.14694,-2.90773 5.30661,-9.55505 -1.38619,-5.006884 -3.33098,-7.163705 -5.83438,-6.470639 -2.06534,0.571803 -4.06705,-0.0869 -4.44826,-1.463873 -0.38118,-1.376858 0.96737,-2.963113 2.99687,-3.524957 3.09892,-0.857931 1.89787,-7.486228 -7.49804,-41.382964 -6.15441,-22.2022049 -12.90384,-42.161307 -15.00183,-44.362123 -2.58822,-2.715002 -2.98105,-4.231272 -1.22264,-4.718098 1.60453,-0.444215 0.0837,-9.775002 -3.9928,-24.499939 -3.92748,-14.186073 -5.57415,-24.062129 -4.08086,-24.475542 1.49005,-0.41254 5.12119,8.762313 8.97057,22.66633 6.11553,22.089311 6.84198,23.443717 13.35948,24.910162 3.97615,0.894644 8.4045,4.546326 10.4664,8.630823 2.69549,5.339605 4.47873,6.411444 7.25423,4.36009 3.01814,-2.230782 3.3157,-1.91017 1.6546,1.783675 -1.6047,3.568118 0.5581,9.53482 10.41024,28.7196701 8.07258,15.7196239 12.84118,27.9318669 13.59111,34.8069459 1.59644,14.634005 -5.10072,44.387759 -9.43808,41.931349 -5.14683,-2.91492 -7.46435,-1.2638 -5.94235,4.23377 0.76242,2.75375 0.0386,5.37984 -1.60829,5.83584 -1.64697,0.45598 1.89766,3.70163 7.87699,7.212437 11.31663,6.64466 13.14335,13.07148 2.14568,7.54718 -6.24775,-3.13814 -6.24377,-3.02188 0.75776,22.26765 l 7.03826,25.42217 62.58544,-17.32711 c 61.5145,-17.03059 62.60907,-17.2419 64.01254,-12.17254 0.7849,2.835 2.36089,4.14651 3.50216,2.91432 1.14141,-1.23181 1.31377,-4.99014 0.38325,-8.35114 -1.41772,-5.12082 -2.90849,-5.77389 -9.20205,-4.03152 -9.16756,2.5381 -9.77468,1.0138 -3.92426,-9.85242 l 4.54975,-8.450607 -10.60354,1.18746 c -5.832,0.65293 -10.92125,0.0399 -11.30959,-1.36278 -0.38835,-1.40269 2.13116,-6.87914 5.59883,-12.16996 7.33008,-11.18393 8.01311,-21.874138 3.33391,-52.180914 -1.86567,-12.083948 -3.31537,-25.8066149 -3.22151,-30.4947789 0.16182,-8.083124 -0.24521,-8.493739 -7.86969,-7.938426 -4.42224,0.321755 -9.00082,1.965279 -10.17459,3.652231 -1.45649,2.09295505 -2.64801,1.21089705 -3.75238,-2.778093 -1.30964,-4.730408 -0.11703,-6.4554041 6.25497,-9.0472061 4.33026,-1.761155 8.14395,-2.224201 8.47526,-1.027504 1.19956,4.3328111 11.36416,-2.643994 10.96471,-7.526666 -0.31686,-3.874077 -1.31128,-4.329785 -4.42572,-2.027913 -3.71323,2.744515 -3.80778,2.545684 -1.25041,-2.629637 2.33972,-4.73478 0.6055,-13.467031 -11.23841,-56.58945 -13.31741,-48.486906 -14.26211,-50.986946 -19.23791,-50.915736 -8.0504,0.11519 -7.3602,-4.09801 1.0529,-6.42722 6.73327,-1.86413 7.28759,-2.8835 5.35685,-9.85737 -1.71187,-6.18325 -2.90649,-7.22155 -5.82607,-5.06358 -2.90254,2.14532 -3.27649,1.83312 -1.78285,-1.48753 1.03937,-2.31111 0.94331,-4.73805 -0.21348,-5.39319 -1.15691,-0.65562 -0.92134,-1.51836 0.52319,-1.91834 3.08042,-0.85284 -2.84866,-36.93767 -7.15549,-43.54832 -1.61947,-2.48589 -5.00282,-4.49363 -7.51855,-4.46164 -3.71258,0.0469 -3.64812,-0.2649 0.34182,-1.65679 4.09809,-1.43 4.1795,-1.94559 0.48885,-3.102 -3.59605,-1.12676 -3.39517,-1.68052 1.07012,-2.95038 4.91549,-1.40163 5.17156,-3.11019 2.41522,-16.20788 l -3.08191,-14.6447 4.51368,14.46246 c 4.49523,14.40368 4.53996,14.44864 10.98366,11.05982 l 6.47004,-3.40264 8.18175,27.01402 c 7.67488,25.34058 7.94966,27.70009 4.43605,38.08866 -2.0601,6.09109 -2.78183,11.96739 -1.60387,13.05849 1.17795,1.09109 0.56508,2.08703 -1.36405,2.21373 -2.26214,0.14851 -2.67476,2.15122 -1.16314,5.64585 1.28848,2.97879 1.14531,5.74741 -0.31811,6.15257 -1.46343,0.40516 -2.19297,2.42642 -1.62117,4.49173 0.59517,2.14979 3.29466,3.13085 6.31432,2.29485 3.75117,-1.03853 5.15402,-0.21204 4.85708,2.8616 -0.53072,5.49324 20.14893,52.141456 24.4381,55.126335 1.76838,1.230692 2.76121,3.039157 2.20637,4.018932 -0.5549,0.9798 2.39564,9.661985 6.55671,19.293887 8.86935,20.530564 8.46276,25.918656 -2.37728,31.502487 -17.41337,8.9700311 -21.15773,21.7598791 -7.28424,24.8813261 4.81518,1.08332 7.77616,3.7483379 8.97515,8.0779589 1.95639,7.064656 14.76722,33.514447 27.53885,56.857927 4.46771,8.16588 7.95963,16.53881 7.75983,18.60658 -0.1998,2.06778 -6.87951,7.21829 -14.84386,11.445517 -12.20741,6.47951 -14.36059,8.63546 -13.71598,13.73364 0.42058,3.32613 2.50214,6.55366 4.62573,7.17239 3.81367,1.11101 71.06535,-18.95052 86.16311,-25.702707 4.68008,-2.09335 7.39176,-4.94118 6.78638,-7.12778 -0.82115,-2.96597 4.1017,-5.05644 26.52937,-11.26567 l 27.53763,-7.62392 -2.69817,-9.745803 c -1.92852,-6.965816 -4.08201,-9.884309 -7.54935,-10.231233 -4.62025,-0.462341 -4.68518,-0.696907 -1.36347,-4.924845 5.37981,-6.847773 3.53526,-7.901227 -8.16381,-4.662269 -15.21798,4.213152 -18.63383,1.4894 -15.76014,-12.567379 1.8913,-9.251506 1.58767,-11.624255 -1.61161,-12.595889 -3.0876,-0.937667 -3.05276,-1.452092 0.16071,-2.374159 2.38489,-0.680602 4.60563,-5.5505649 5.30336,-11.6169319 1.16636,-10.139802 0.94967,-10.602403 -7.5373,-16.0966861 l -8.73808,-5.656945 7.9768,3.846191 c 4.38722,2.115401 8.74917,3.632389 9.69307,3.37106 3.16022,-0.87492 -2.19493,-14.153864 -7.2759,-18.041729 -7.25074,-5.54819 -7.09513,-7.964716 0.52494,-8.149048 9.56384,-0.231354 7.08788,-4.477258 -3.84872,-6.599847 l -9.25709,-1.796743 13.09863,-3.798684 13.0986,-3.798687 -2.77233,-10.013639 c -2.00226,-7.232168 -3.81541,-9.724958 -6.52743,-8.974119 -2.06531,0.571789 -4.06705,-0.08687 -4.44825,-1.463744 -0.38119,-1.376875 0.89026,-2.941739 2.82537,-3.477481 2.82433,-0.78193 2.17951,-4.989831 -3.26887,-21.331338 -13.31817,-39.945115 -17.02741,-49.928975 -19.9756,-53.766275 -2.2837,-2.9723 -1.74465,-4.23375 2.28635,-5.34976 2.90105,-0.80316 4.96285,-2.58684 4.58166,-3.96371 -0.3812,-1.37688 -2.38297,-2.03563 -4.44828,-1.46384 -2.06531,0.57179 -4.06696,-0.0869 -4.44816,-1.46379 -0.38119,-1.37688 0.99671,-2.9712 3.06201,-3.54299 2.6226,-0.72608 3.02356,-3.68221 1.32938,-9.80158 -1.6942,-6.1195 -1.29333,-9.07559 1.32927,-9.80167 6.27796,-1.73809 -4.07367,-34.84258 -13.67631,-43.73708 -7.12274,-6.59742 -7.29128,-7.07 -3.00918,-8.43694 2.49459,-0.79661 8.61789,-3.13159 13.60705,-5.1903 8.3695,-3.453 9.20607,-3.25573 10.8135,2.55028 2.15411,7.78066 12.66589,27.2133 17.6225,32.57779 2.02293,2.18929 2.5623,3.65551 1.19853,3.25837 -1.36335,-0.39676 -3.15965,4.82467 -3.99151,11.60428 -1.49044,12.14689 -2.70893,13.74784 -11.61978,15.26563 -3.50935,0.59773 -3.97521,2.67843 -2.10911,9.41879 2.46755,8.91275 6.32308,10.83601 16.22622,8.09427 3.56282,-0.98638 4.94603,-0.1205 4.65291,2.91274 -0.59868,6.19643 10.31318,25.59369 16.93414,30.10275 5.28909,3.60198 5.31636,3.70454 0.45583,1.71987 -4.71182,-1.92488 -4.80394,-1.30128 -1.0459,7.0743 2.2666,5.05192 6.53981,10.84673 9.49565,12.87749 3.838625,2.63705 4.193005,3.3754 1.23991,2.58363 -3.16725,-0.84929 -3.42582,-0.15032 -1.10546,2.98899 1.66577,2.253655 5.539885,10.491792 8.609185,18.306976 4.52495,11.521404 5.00837,15.348956 2.55415,20.234421 -1.73844,3.46118 -1.84579,7.204323 -0.25207,8.796061 2.1246,2.122015 1.85586,2.298609 -1.14764,0.75373 -2.6706,-1.373516 -6.23219,-0.602421 -11.163425,2.417287 -3.98296,2.438609 -10.42552,5.315238 -14.31675,6.392546 -5.85502,1.620995 -6.67513,2.866729 -4.75664,7.222063 1.63357,3.707396 5.04008,5.21487 11.52582,5.099696 5.06401,-0.08989 18.053565,4.114122 28.865628,9.342465 l 19.658499,9.506 -4.031971,-14.563433 c -3.42375,-12.366664 -5.389336,-15.42797 -13.031039,-20.295499 -8.850852,-5.637743 -8.864612,-5.667243 -0.839944,-1.790164 10.009419,4.835967 10.34979,3.105604 4.239395,-21.551114 -4.031317,-16.268383 -5.357072,-18.734851 -11.97884,-22.289053 -4.095033,-2.198028 -4.980653,-2.9747 -1.968113,-1.726014 6.209491,2.57387 6.277978,-1.201215 0.091,-5.016078 -3.28964,-2.0284 -3.27941,-2.30607 0.0543,-1.45957 3.139206,0.79727 3.420192,0.0137 1.1833,-3.30128 -2.8895,-4.2818 -2.86774,-4.28782 1.452108,-0.40203 2.412011,2.16962 8.40323,6.575313 13.313664,9.790505 l 8.928389,5.845788 -5.229203,-8.862299 c -2.876066,-4.874214 -8.853961,-13.390404 -13.284262,-18.924734 l -8.055086,-10.06253 20.280956,10.6093 c 11.1546,5.83518 43.584439,25.827646 72.06634588,44.427893 28.48198512,18.600124 56.36092012,36.770958 61.95317312,40.379562 5.63072,3.633323 7.011785,5.122497 3.094897,3.337245 -6.09879,-2.779917 -10.392916,-2.200447 -31.178916,4.206743 -13.258127,4.087227 -24.4268033,7.99133 -24.8189459,8.676597 -0.3920492,0.685082 0.7965417,2.373281 2.6416899,3.751299 4.677712,3.4936261 9.259251,10.3409761 6.950535,10.3879611 -1.052503,0.02159 -9.3330924,3.03827105 -18.40129512,6.703944 C -13.260573,9.4351621 -15.940307,11.335015 -13.106146,13.307454 c 2.771308,1.928623 0.805434,4.62021 -8.731789,11.955807 -10.776724,8.289081 -11.772612,9.863935 -8.003322,12.657508 3.864558,2.864186 3.739156,2.954033 -1.22589,0.878326 -4.816895,-2.013783 -7.60305,-1.11529 -21.580971,6.959838 -18.254684,10.545828 -28.884871,12.139168 -30.960901,4.64055 -1.107047,-3.998645 -3.070024,-4.489235 -10.135006,-2.533252 -7.972175,2.207136 -8.583295,3.071055 -6.778795,9.588871 1.738975,6.2812 2.708985,6.804325 7.880975,4.24853 3.983966,-1.968839 6.761025,-1.746575 8.557754,0.684268 1.46282,1.979502 3.637608,2.543472 4.832272,1.254118 1.194769,-1.290384 3.873884,-1.011275 5.954277,0.622063 9.448687,7.414142 14.620538,6.199662 43.409275,-10.192926 C -14.622253,45.37839 -1.7818551,37.065018 -1.3540851,35.596838 -0.92628112,34.128527 20.846728,20.863829 47.030552,6.1194191 73.214529,-8.6249159 95.037931,-22.062356 95.527144,-23.741545 c 0.557645,-1.913712 1.771743,-1.859219 3.253918,0.145961 1.704588,2.306367 -1.214673,5.520733 -10.461459,11.519069 l -12.825855,8.3199461 7.951151,1.715862 c 8.90367,1.92128905 8.962382,-1.112046 -0.550474,28.4689219 -4.007346,12.461216 -7.143706,13.037759 -29.657709,5.451757 -17.777427,-5.990005 -18.217695,-6.049964 -21.152238,-2.881771 -1.847429,1.994505 1.410706,3.954784 10.664917,6.416599 7.328778,1.949637 13.634784,4.663517 14.013312,6.030741 0.451258,1.629975 -1.18115,2.065433 -4.741413,1.261864 -4.561624,-1.026289 -5.593909,0.116805 -6.461193,7.155111 -1.250299,10.146223 -18.030229,37.199307 -24.11879,38.884937 -2.405727,0.66605 -13.7107545,-3.55237 -25.1228451,-9.37227 -22.4136119,-11.43249 -21.6448009,-11.70149 -19.4044489,6.78971 0.342435,2.82276 -8.867821,19.013427 -20.466182,35.979007 l -21.088025,30.84648 -173.98741,48.16991 -173.98746,48.16981 z m 1.68123,-143.981557 c -0.57181,-2.06539 -2.86737,-3.24918 -5.10127,-2.63068 -3.32655,0.92095 -3.30953,1.64767 0.0946,4.01683 2.28586,1.59075 4.58141,2.7745 5.10129,2.63059 0.51984,-0.14394 0.47711,-1.95154 -0.0943,-4.01676 z M 30.747714,1.9445831 l -6.328343,-4.312361 6.952958,3.20947105 c 6.534084,3.01628195 8.57092,4.62148995 6.56759,5.17611895 -0.47495,0.131505 -3.711531,-1.701445 -7.192205,-4.073229 z M -400.24942,123.61982 c -0.14376,-0.51945 1.28168,-3.03706 3.16805,-5.59387 3.10848,-4.21321 3.22149,-4.14917 1.2069,0.68356 -2.11585,5.07549 -3.8045,6.97071 -4.37492,4.91031 z m 477.600147,-148.054042 -6.328453,-4.312341 6.95299,3.20957 c 3.824212,1.765172 7.060696,3.598122 7.192212,4.073195 0.554651,2.003345 -1.869661,1.081994 -7.816749,-2.970424 z M -372.82553,86.379013 c -0.14375,-0.51945 1.28172,-3.03708 3.16809,-5.59387 3.10849,-4.21314 3.22151,-4.14917 1.2069,0.68355 -2.11586,5.0755 -3.80447,6.9708 -4.37492,4.91032 z m 17.67917,-23.761678 c -0.14375,-0.519448 1.28174,-3.037057 3.16811,-5.593872 3.10846,-4.213185 3.22148,-4.149179 1.20692,0.683552 -2.11589,5.075477 -3.80455,6.970708 -4.37495,4.91032 z m 7.93446,-10.282579 c -0.14375,-0.519447 1.28169,-3.037089 3.16806,-5.593861 3.10845,-4.213228 3.22151,-4.149222 1.2069,0.68352 -2.11585,5.075509 -3.8045,6.97073 -4.37492,4.910341 z m 9.74475,-13.479075 c -0.14375,-0.519447 1.28171,-3.037067 3.16807,-5.593872 3.10843,-4.213196 3.22149,-4.149168 1.20683,0.683574 -2.1159,5.075488 -3.80453,6.970795 -4.3749,4.910396 z M 39.278553,-69.147485 c -4.213218,-3.108403 -4.149162,-3.221466 0.683524,-1.206908 5.075479,2.115843 6.9707,3.804465 4.910297,4.3749 -0.519446,0.143823 -3.037057,-1.281707 -5.593855,-3.168087 z m -202.352783,47.936519 c -4.2132,-3.108432 -4.14917,-3.221492 0.68353,-1.206935 5.07546,2.115855 6.97076,3.804455 4.91038,4.374879 -0.51944,0.14383 -3.03707,-1.281705 -5.59391,-3.168047 z M -319.78798,15.09393 c -0.14376,-0.519448 1.28172,-3.037068 3.16809,-5.5938719 3.10847,-4.213153 3.22151,-4.149179 1.20691,0.6835199 -2.11589,5.07552 -3.80453,6.970827 -4.37496,4.910362 z m 139.90756,-43.780832 -6.32845,-4.312362 6.95302,3.209463 c 6.53412,3.016264 8.5709,4.621482 6.56754,5.176123 -0.47507,0.131515 -3.71149,-1.701433 -7.19211,-4.073224 z m -18.48596,-8.358633 -6.3284,-4.312344 6.953,3.20956 c 6.53409,3.016172 8.57091,4.621385 6.56755,5.176023 -0.47508,0.131514 -3.71153,-1.70145 -7.19215,-4.073239 z m -18.48592,-8.358615 -6.32844,-4.31236 6.95302,3.209584 c 6.53408,3.016149 8.57092,4.621452 6.56755,5.176094 -0.47506,0.131513 -3.71152,-1.701425 -7.19213,-4.073318 z m -32.17087,-14.904061 -14.0923,-7.091928 14.45699,5.975326 c 12.67314,5.238025 16.61066,7.443884 14.35536,8.042107 -0.34552,0.09057 -6.96928,-3.024862 -14.72005,-6.925505 z m 93.23184,-22.215709 c -4.21322,-3.108403 -4.14917,-3.221491 0.68353,-1.206908 2.93271,1.222593 5.44996,2.648243 5.59391,3.16818 0.57042,2.060375 -1.85248,1.303362 -6.27734,-1.961297 z m -21.6824,-10.168936 c -4.21323,-3.108405 -4.14918,-3.221493 0.68353,-1.206909 5.07551,2.115943 6.97082,3.804539 4.91032,4.374996 -0.51943,0.143821 -3.03708,-1.28173 -5.59385,-3.168087 z m 79.709885,-28.806364 -6.328445,-4.31233 6.952995,3.20957 c 6.53414,3.01615 8.570879,4.62138 6.56754,5.17602 -0.47498,0.13149 -3.71152,-1.70145 -7.19209,-4.07326 z m -96.516125,21.33036 -6.32841,-4.31237 6.953,3.20957 c 6.53409,3.01617 8.57094,4.621473 6.56757,5.176113 -0.47508,0.131514 -3.71152,-1.701426 -7.19216,-4.073313 z m -209.57909,54.983965 c -0.14376,-0.519464 1.28169,-3.037074 3.16808,-5.593881 3.10847,-4.213226 3.22154,-4.149178 1.20684,0.683562 -2.11591,5.075491 -3.80455,6.970707 -4.37497,4.910334 z M -214.44563,-109.41 c -4.2132,-3.1085 -4.14917,-3.22156 0.68353,-1.2069 5.07549,2.11585 6.97079,3.80454 4.91037,4.37498 -0.51981,0.14391 -3.03708,-1.28171 -5.59387,-3.16808 z m -173.54459,43.659911 c -0.14375,-0.519442 1.2817,-3.037073 3.16809,-5.593875 3.10845,-4.213212 3.22151,-4.149183 1.20682,0.68358 -2.11587,5.075494 -3.8045,6.970711 -4.37495,4.910306 z m 316.663634,-91.369031 c -4.213228,-3.10853 -4.1492,-3.22159 0.683546,-1.20694 5.075467,2.11586 6.970798,3.80455 4.91042,4.37497 -0.519441,0.14383 -3.037073,-1.28171 -5.593966,-3.16803 z m -159.925234,40.23311 -6.32843,-4.31236 6.953,3.20956 c 6.53412,3.01617 8.5709,4.62138 6.56755,5.17602 -0.47508,0.13152 -3.7115,-1.70143 -7.19212,-4.07322 z m -146.99363,37.656858 c -0.14376,-0.519443 1.28168,-3.037073 3.16806,-5.593875 3.10847,-4.21323 3.22154,-4.149181 1.20684,0.683548 -2.11589,5.075503 -3.8045,6.970813 -4.37492,4.910442 z m 128.50767,-46.015488 -6.3284,-4.31235 6.953,3.20957 c 6.53409,3.01617 8.57093,4.62148 6.56755,5.17612 -0.47508,0.13152 -3.7115,-1.70146 -7.19215,-4.07334 z m -118.76282,32.536807 c -0.14375,-0.519464 1.2817,-3.037175 3.1681,-5.593969 3.10846,-4.213138 3.22153,-4.149098 1.20688,0.683528 -2.11586,5.075494 -3.8045,6.970805 -4.37495,4.910428 z m 100.27701,-40.894937 -6.32842,-4.31236 6.95299,3.20946 c 6.53412,3.01626 8.57093,4.62147 6.56756,5.17612 -0.47507,0.1315 -3.71151,-1.70144 -7.19213,-4.07322 z m 169.245795,-45.50895 c -4.213135,-3.10843 -4.149085,-3.22152 0.68353,-1.20691 5.07551,2.11595 6.97082,3.80455 4.91044,4.37497 -0.51946,0.14382 -3.03708,-1.28174 -5.59388,-3.16808 z m -92.895425,14.9374 c -4.21312,-3.10852 -4.1491,-3.22161 0.68355,-1.20691 5.0755,2.11584 6.97083,3.80454 4.91043,4.37497 -0.51945,0.14382 -3.03709,-1.28173 -5.59388,-3.16809 z m -18.48589,-8.35862 c -4.21318,-3.10842 -4.14916,-3.2215 0.68355,-1.20694 5.07549,2.11595 6.97077,3.80458 4.91037,4.37502 -0.51983,0.1439 -3.03709,-1.28174 -5.59388,-3.16809 z m -122.78314,32.30171 c -0.14375,-0.51947 1.28174,-3.03709 3.16808,-5.59389 3.10847,-4.21323 3.22153,-4.14919 1.20692,0.68352 -2.11589,5.0755 -3.8045,6.97082 -4.37492,4.91044 z m 104.29718,-40.66034 c -4.21318,-3.10841 -4.14915,-3.22149 0.68355,-1.20691 5.07549,2.11584 6.97077,3.80445 4.91035,4.37489 -0.51982,0.14391 -3.03709,-1.28174 -5.59388,-3.16809 z m -35.29211,-15.83455 -6.32845,-4.31234 6.95304,3.20956 c 6.53409,3.01616 8.57088,4.62138 6.56754,5.17601 -0.47507,0.13153 -3.71152,-1.70144 -7.19213,-4.07323 z m -23.36217,-11.05152 c -4.21319,-3.10841 -4.14916,-3.22148 0.68353,-1.20691 5.07553,2.11595 6.97079,3.80455 4.91037,4.37498 -0.51981,0.1439 -3.03709,-1.28173 -5.59388,-3.16807 z m -16.80622,-7.47602 -6.32842,-4.31234 6.95303,3.20956 c 3.82417,1.76528 7.06061,3.59825 7.1921,4.07321 0.55469,2.00345 -1.86959,1.08198 -7.81671,-2.97043 z"
       style="fill:#000000;stroke-width:0.999999" />
  </g>
</svg>
